Coordinates
version=1
nRows=54
nColumns=12
inDegrees=yes

Units are S.I. units (second, meters, Newtons, ...)
Angles are in degrees

endheader
time	SC_y	SC_z	SC_x	AC_y	AC_z	AC_x	GH_y	GH_z	GH_yy	EL_x	PS_y
       0.0              -49.56          9.021          16.28          64.62         -16.24           11.0         -117.8          85.71         -47.84          132.7          29.76
   0.01826              -49.56          9.024          16.28          64.62         -16.24           11.0         -117.8           85.7         -47.83          132.6          29.77
   0.03651              -49.56          9.028          16.28          64.62         -16.24           11.0         -117.8          85.69         -47.82          132.6          29.79
   0.05477              -49.56          9.032          16.28          64.61         -16.23          10.99         -117.8          85.69         -47.81          132.6           29.8
   0.07302              -49.56          9.036          16.28          64.61         -16.23          10.99         -117.7          85.68          -47.8          132.6          29.82
   0.09128              -49.56           9.04          16.28          64.61         -16.22          10.99         -117.7          85.67         -47.79          132.6          29.84
    0.1095              -49.56          9.045          16.28          64.61         -16.22          10.99         -117.7          85.66         -47.78          132.6          29.86
    0.1278              -49.56           9.05          16.28          64.61         -16.21          10.99         -117.7          85.65         -47.77          132.6          29.88
     0.146              -49.56          9.055          16.28           64.6         -16.21          10.99         -117.7          85.64         -47.75          132.6           29.9
    0.1643              -49.56          9.061          16.28           64.6          -16.2          10.99         -117.7          85.63         -47.74          132.5          29.92
    0.1826              -49.55          9.067          16.28           64.6         -16.19          10.98         -117.6          85.62         -47.72          132.5          29.95
    0.2008              -49.55          9.073          16.28           64.6         -16.19          10.98         -117.6          85.61          -47.7          132.5          29.97
    0.2191              -49.55           9.08          16.28          64.59         -16.18          10.98         -117.6          85.59         -47.69          132.5           30.0
    0.2373              -49.55          9.088          16.28          64.59         -16.17          10.98         -117.6          85.58         -47.67          132.4          30.03
    0.2556              -49.55          9.096          16.28          64.59         -16.16          10.98         -117.6          85.56         -47.65          132.4          30.07
    0.2738              -49.55          9.105          16.28          64.58         -16.15          10.97         -117.5          85.55         -47.62          132.4           30.1
    0.2921              -49.55          9.115          16.28          64.58         -16.14          10.97         -117.5          85.53          -47.6          132.4          30.14
    0.3104              -49.54          9.125          16.28          64.58         -16.13          10.97         -117.5          85.51         -47.57          132.3          30.19
    0.3286              -49.54          9.137          16.28          64.57         -16.12          10.96         -117.4          85.49         -47.54          132.3          30.23
    0.3469              -49.54           9.15          16.28          64.56         -16.11          10.96         -117.4          85.46         -47.51          132.3          30.29
    0.3651              -49.54          9.164          16.28          64.56         -16.09          10.96         -117.3          85.44         -47.47          132.2          30.34
    0.3834              -49.53          9.179          16.29          64.55         -16.07          10.95         -117.3          85.41         -47.43          132.2          30.41
    0.4016              -49.53          9.196          16.29          64.55         -16.06          10.95         -117.3          85.38         -47.39          132.1          30.48
    0.4199              -49.53          9.215          16.29          64.54         -16.04          10.94         -117.2          85.34         -47.34          132.0          30.55
    0.4381              -49.52          9.235          16.29          64.53         -16.01          10.94         -117.1           85.3         -47.28          132.0          30.64
    0.4564              -49.52          9.259          16.29          64.52         -15.99          10.93         -117.1          85.26         -47.22          131.9          30.73
    0.4747              -49.51          9.285          16.29          64.51         -15.96          10.92         -117.0          85.21         -47.16          131.8          30.84
    0.4929              -49.51          9.314          16.29           64.5         -15.93          10.91         -116.9          85.15         -47.08          131.7          30.96
    0.5112               -49.5          9.347          16.29          64.48         -15.89           10.9         -116.8          85.09         -46.99          131.6          31.09
    0.5294               -49.5          9.385          16.29          64.47         -15.85          10.89         -116.7          85.02          -46.9          131.5          31.25
    0.5477              -49.49          9.427          16.29          64.45         -15.81          10.88         -116.5          84.94         -46.78          131.4          31.42
    0.5659              -49.48          9.477           16.3          64.43         -15.75          10.87         -116.4          84.85         -46.66          131.2          31.63
    0.5842              -49.47          9.533           16.3           64.4         -15.69          10.85         -116.2          84.74         -46.51          131.0          31.86
    0.6025              -49.46          9.599           16.3          64.37         -15.62          10.83         -116.0          84.62         -46.34          130.8          32.13
    0.6207              -49.44          9.677           16.3          64.34         -15.54          10.81         -115.8          84.47         -46.14          130.6          32.45
     0.639              -49.43          9.768          16.31           64.3         -15.44          10.79         -115.5           84.3          -45.9          130.3          32.82
    0.6572              -49.41          9.876          16.31          64.26         -15.32          10.75         -115.2          84.09         -45.62          129.9          33.26
    0.6755              -49.38          10.01          16.31           64.2         -15.18          10.72         -114.8          83.85         -45.28          129.5          33.79
    0.6937              -49.35          10.16          16.32          64.14         -15.01          10.67         -114.3          83.55         -44.87          129.0          34.44
     0.712              -49.32          10.35          16.33          64.06          -14.8          10.62         -113.7          83.19         -44.37          128.4          35.22
    0.7302              -49.28          10.59          16.33          63.96         -14.55          10.55         -113.0          82.75         -43.76          127.7          36.19
    0.7485              -49.22          10.89          16.34          63.83         -14.23          10.47         -112.1          82.19         -42.99          126.7           37.4
    0.7668              -49.15          11.26          16.36          63.67         -13.83          10.36         -111.0          81.49         -42.02          125.6          38.92
     0.785              -49.07          11.73          16.37          63.47         -13.32          10.23         -109.5           80.6          -40.8          124.1          40.86
    0.8033              -48.96          12.33           16.4          63.22         -12.67          10.06         -107.7          79.46         -39.22          122.2          43.34
    0.8215              -48.81          13.11          16.42          62.89         -11.83          9.836         -105.3           78.0         -37.21          119.7          46.52
    0.8398              -48.63           14.1          16.46          62.47         -10.76          9.554         -102.3          76.13         -34.63          116.6          50.58
     0.858               -48.4          15.35           16.5          61.94         -9.415            9.2         -98.48          73.78         -31.39          112.6          55.69
    0.8763              -48.12          16.87          16.55           61.3         -7.776          8.768         -93.84          70.92         -27.44          107.8          61.91
    0.8946               -47.8          18.63          16.61          60.56         -5.876          8.268         -88.47           67.6         -22.86          102.2          69.12
    0.9128              -47.45          20.53          16.68          59.75         -3.819          7.727         -82.65           64.0          -17.9          96.18          76.93
    0.9311               -47.1          22.44          16.75          58.95         -1.761          7.185         -76.83          60.41         -12.94          90.14          84.75
    0.9493              -46.78           24.2          16.81           58.2         0.1386          6.685         -71.46          57.09         -8.366          84.57          91.96
    0.9676               -46.5          25.72          16.86          57.56          1.778          6.253         -66.83          54.23         -4.417          79.75          98.18
